<?xml version="1.0" standalone="no"?>
<!DOCTYPE svg PUBLIC "-//W3C//DTD SVG 20010904//EN"
 "http://www.w3.org/TR/2001/REC-SVG-20010904/DTD/svg10.dtd">
<svg version="1.0" xmlns="http://www.w3.org/2000/svg"
 width="500.000000pt" height="136.000000pt" viewBox="0 0 500.000000 136.000000"
 preserveAspectRatio="xMidYMid meet">
<metadata>
Created by potrace 1.16, written by Peter Selinger 2001-2019
</metadata>
<g transform="translate(0.000000,136.000000) scale(0.100000,-0.100000)"
fill="#000000" stroke="none">
<path d="M421 1138 c-52 -15 -115 -64 -142 -111 -24 -41 -24 -46 -27 -350 -3
-350 0 -376 66 -440 75 -73 -118 -67 2189 -67 1997 0 2080 1 2119 19 57 26
111 92 124 155 8 33 10 153 8 341 -3 281 -4 292 -26 338 -27 53 -84 98 -147
116 -53 14 -4113 14 -4164 -1z m3759 -169 c74 -34 138 -66 142 -72 3 -6 -3
-30 -15 -54 -16 -33 -25 -42 -39 -37 -14 4 -24 -7 -45 -51 -26 -52 -27 -57
-11 -66 16 -9 17 -13 3 -46 -28 -66 -23 -66 -178 4 -78 36 -148 71 -156 78
-20 19 26 101 54 98 29 -4 72 93 51 116 -11 14 -10 22 6 59 14 32 24 43 36 39
9 -3 78 -33 152 -68z m-1415 -65 c0 -23 6 -29 40 -38 35 -10 40 -16 43 -44 4
-35 -3 -39 -32 -17 -30 22 -123 20 -135 -3 -15 -27 -2 -38 79 -71 73 -30 120
-67 120 -96 0 -25 -45 -66 -80 -74 -28 -5 -36 -12 -38 -34 -3 -21 -9 -27 -28
-27 -21 0 -24 3 -18 25 5 21 2 25 -23 30 -88 18 -88 19 -91 58 -4 43 -1 44 36
17 34 -25 120 -37 150 -21 24 13 29 43 9 59 -7 6 -39 21 -72 33 -78 29 -104
46 -111 75 -9 35 19 71 66 85 34 11 40 16 40 41 0 23 4 28 23 28 18 0 23 -5
22 -26z m-1904 -49 c52 -28 58 -86 12 -127 -28 -26 -88 -48 -127 -48 -41 0
-50 -17 -36 -74 5 -22 7 -44 4 -48 -8 -12 -62 -10 -70 3 -3 6 -3 78 1 160 l7
149 90 0 c61 0 98 -5 119 -15z m975 -67 c37 -107 51 -108 85 -3 l26 80 44 0
44 0 6 -60 c4 -33 9 -103 10 -155 l4 -95 -32 -3 -33 -3 0 78 c0 81 -7 123 -20
123 -4 0 -19 -32 -34 -70 -35 -88 -58 -104 -86 -58 -11 18 -27 55 -36 81 -24
72 -38 54 -44 -54 -5 -94 -5 -94 -33 -97 -17 -2 -29 2 -33 12 -6 17 13 284 22
298 3 4 22 8 43 8 l39 0 28 -82z m1182 40 c3 -24 8 -27 45 -30 57 -4 59 -32 2
-36 -22 -2 -43 -9 -47 -15 -4 -7 -8 -37 -8 -68 0 -71 15 -87 65 -71 34 10 35
9 35 -18 0 -29 -18 -40 -67 -40 -67 0 -96 45 -91 141 3 60 2 63 -22 69 -34 8
-32 34 3 38 20 3 27 9 27 26 0 29 9 38 35 34 13 -2 21 -12 23 -30z m-2016
-110 c-3 -67 -1 -79 17 -97 24 -24 49 -27 77 -7 16 12 19 28 21 98 l2 83 29 3
30 3 7 -115 c4 -63 4 -120 0 -125 -3 -6 -17 -11 -31 -11 -17 0 -24 5 -24 19 0
25 -16 36 -27 18 -26 -44 -94 -48 -134 -8 -28 28 -29 33 -29 119 0 49 3 92 7
96 4 4 19 6 33 4 24 -3 25 -4 22 -80z m278 -70 c-1 -110 -4 -158 -14 -170 -34
-45 -116 -41 -116 6 0 21 4 24 33 22 l32 -1 3 148 3 147 29 0 30 0 0 -152z
m210 137 c38 -19 52 -68 48 -160 -3 -68 -4 -70 -30 -73 -24 -3 -28 0 -28 22 0
32 -5 32 -42 1 -36 -30 -81 -32 -108 -5 -48 48 -8 111 84 130 43 9 56 16 56
30 0 26 -41 33 -92 16 -23 -9 -44 -13 -46 -11 -10 10 10 54 26 58 38 10 105 6
132 -8z m789 -13 c25 -25 29 -38 36 -116 8 -95 2 -110 -36 -104 -16 2 -25 11
-27 26 -4 27 -7 27 -32 2 -50 -50 -123 -32 -128 32 -4 46 24 74 82 83 75 13
97 36 52 56 -24 11 -37 9 -98 -16 -15 -6 -18 -2 -18 23 0 35 9 39 88 41 46 1
57 -3 81 -27z m250 13 c50 -25 56 -82 14 -115 -24 -19 -36 -21 -86 -16 -55 5
-57 5 -47 -14 22 -41 96 -54 138 -24 21 15 22 14 22 -15 0 -36 -6 -40 -68 -48
-97 -11 -160 48 -150 141 6 48 28 82 63 97 32 13 84 10 114 -6z m673 -12 c-4
-30 7 -29 37 3 19 19 32 24 60 22 34 -3 36 -5 39 -41 3 -36 2 -38 -17 -28 -23
13 -71 14 -87 3 -24 -16 -35 -56 -33 -115 l3 -62 -30 0 -29 0 -3 109 c-1 61 0
116 3 124 3 8 16 12 32 10 23 -2 27 -7 25 -25z m358 -1 c25 -25 29 -38 35
-116 8 -95 3 -110 -36 -104 -16 2 -25 11 -27 26 -4 27 -7 27 -32 2 -50 -50
-123 -32 -128 32 -4 46 25 75 84 84 24 3 51 12 61 20 17 13 17 15 -2 30 -21
16 -80 12 -99 -7 -17 -16 -26 -10 -26 20 0 34 10 38 88 40 46 1 57 -3 82 -27z
m961 -99 c10 -10 -20 -86 -38 -96 -5 -2 -51 16 -103 42 -81 39 -95 49 -93 69
2 12 -2 22 -7 22 -6 0 -10 7 -10 15 0 8 8 15 19 15 10 0 24 6 30 14 10 12 26
8 102 -29 50 -23 95 -47 100 -52z m-218 -260 c4 -3 2 -12 -4 -20 -9 -10 -57
-13 -215 -13 -195 0 -225 4 -209 30 7 11 417 14 428 3z"/>
</g>
</svg>
