<svg version="1.1" id="Layer_1" xmlns="http://www.w3.org/2000/svg" xmlns:xlink="http://www.w3.org/1999/xlink" x="0px" y="0px"
	 width="100%" viewBox="0 0 500 136" enable-background="new 0 0 500 136" xml:space="preserve">
<path fill="#FFFEFF" opacity="1.000000" stroke="none" 
	d="
M327.000000,137.000000 
	C218.000015,137.000000 109.500038,137.000000 1.000044,137.000000 
	C1.000029,91.666695 1.000029,46.333389 1.000015,1.000062 
	C167.666611,1.000041 334.333221,1.000041 500.999878,1.000021 
	C500.999908,46.333267 500.999908,91.666534 500.999939,136.999908 
	C443.166656,137.000000 385.333344,137.000000 327.000000,137.000000 
M365.500000,120.001930 
	C394.665619,120.001907 423.831268,120.038177 452.996796,119.985619 
	C466.345459,119.961563 476.035522,110.337578 476.092407,97.072975 
	C476.164551,80.240547 475.615662,63.388397 476.266418,46.580826 
	C476.802643,32.730618 464.361938,22.756832 452.365448,22.782774 
	C318.370850,23.072546 184.375351,22.964008 50.380100,22.968227 
	C36.149143,22.968676 26.887465,32.038593 26.813412,46.206436 
	C26.728916,62.372097 27.410656,78.568909 26.619270,94.696236 
	C25.794689,111.500114 39.228718,120.195885 52.011513,120.161163 
	C156.173721,119.878159 260.337036,120.001930 365.500000,120.001930 
z"/>
<path fill="#7C0B93" opacity="1.000000" stroke="none" 
	d="
M365.000000,120.001930 
	C260.337036,120.001930 156.173721,119.878159 52.011513,120.161163 
	C39.228718,120.195885 25.794689,111.500114 26.619270,94.696236 
	C27.410656,78.568909 26.728916,62.372097 26.813412,46.206436 
	C26.887465,32.038593 36.149143,22.968676 50.380100,22.968227 
	C184.375351,22.964008 318.370850,23.072546 452.365448,22.782774 
	C464.361938,22.756832 476.802643,32.730618 476.266418,46.580826 
	C475.615662,63.388397 476.164551,80.240547 476.092407,97.072975 
	C476.035522,110.337578 466.345459,119.961563 452.996796,119.985619 
	C423.831268,120.038177 394.665619,120.001907 365.000000,120.001930 
M425.174561,58.513641 
	C425.941437,58.046158 426.694000,57.201694 427.477509,57.171921 
	C432.863770,56.967201 432.072174,51.906029 433.710846,48.930027 
	C434.028107,48.353844 431.691772,45.613125 430.104614,44.813622 
	C423.293976,41.382908 416.307220,38.301636 409.382324,35.098106 
	C401.811920,31.595980 401.711578,31.561794 398.843323,39.332035 
	C398.344177,40.684189 399.095184,42.490372 399.238037,44.089584 
	C399.329865,45.117126 399.701965,46.280434 399.362122,47.155079 
	C398.405579,49.616825 397.145874,51.960762 395.976868,54.411533 
	C389.554291,52.959255 390.003906,58.759781 388.316589,61.879433 
	C386.514648,65.210991 389.943939,65.932121 392.079407,66.931236 
	C399.591705,70.445923 407.106659,73.959396 414.699768,77.293129 
	C416.333679,78.010490 419.506073,78.760193 419.902222,78.150833 
	C421.656464,75.452492 424.570587,70.876190 423.578369,69.508209 
	C420.349243,65.055931 424.047211,62.536842 425.174561,58.513641 
M187.202728,77.511909 
	C190.716110,78.975853 192.039185,76.620216 193.134888,74.033089 
	C194.691666,70.357361 196.158386,66.643509 197.663589,62.945938 
	C198.178009,63.014759 198.692444,63.083576 199.206863,63.152393 
	C199.206863,67.374222 199.267273,71.597115 199.193161,75.817642 
	C199.071762,82.733101 200.112061,83.484833 207.591629,80.931473 
	C206.770325,71.528633 206.044006,61.928589 204.951874,52.370350 
	C204.818542,51.203552 202.832092,49.556206 201.513184,49.348988 
	C197.787888,48.763702 194.807419,49.598312 193.846100,54.249454 
	C192.975449,58.461876 191.176758,62.482491 189.454315,67.571373 
	C188.138046,65.742111 187.496719,65.167122 187.250000,64.455345 
	C185.890762,60.533699 184.509918,56.612530 183.364685,52.625645 
	C182.188354,48.530415 178.829971,48.891140 176.083862,49.441711 
	C174.666977,49.725792 172.949600,52.002178 172.635559,53.623840 
	C171.785233,58.014523 171.425171,62.528030 171.222427,67.008743 
	C171.000366,71.916321 171.171890,76.841705 171.171890,81.724739 
	C178.826172,82.696365 178.775452,82.697632 178.598511,75.629807 
	C178.493683,71.442337 178.579315,67.250099 178.579315,63.060009 
	C179.046692,63.038010 179.514084,63.016010 179.981461,62.994007 
	C182.193512,67.672905 184.405563,72.351807 187.202728,77.511909 
M277.978363,48.151569 
	C277.882660,46.556438 277.786926,44.961308 277.670654,43.023201 
	C275.648865,43.172878 274.081421,43.288918 271.765015,43.460407 
	C274.063477,48.832470 270.500580,49.389053 267.164307,50.986244 
	C264.852051,52.093208 262.172699,55.023174 262.011963,57.304497 
	C261.852081,59.574295 264.162109,62.657936 266.248535,64.277725 
	C268.641235,66.135315 272.018555,66.687225 274.895264,67.969742 
	C277.587891,69.170174 282.220062,69.337120 280.962799,73.476784 
	C280.487183,75.042740 275.580048,76.271721 272.915558,75.928055 
	C268.895935,75.409607 265.071655,73.376968 261.177795,71.992691 
	C260.250183,79.300758 260.250183,79.300758 271.782104,82.715919 
	C271.977264,84.273438 272.175598,85.856483 272.336395,87.139786 
	C278.238403,89.682968 277.553253,85.163452 278.011475,82.322617 
	C279.921661,81.789581 281.571411,81.483803 283.098053,80.871193 
	C286.336670,79.571609 289.626740,77.536919 288.906830,73.758110 
	C288.395813,71.075874 286.289429,68.158302 284.045135,66.487694 
	C281.478546,64.577202 277.836090,64.187035 274.916199,62.651337 
	C272.759033,61.516808 271.010468,59.605404 269.079865,58.040127 
	C271.680176,57.072212 274.235748,55.936951 276.904144,55.223671 
	C277.889099,54.960384 279.200348,55.548962 280.256287,55.998947 
	C282.285309,56.863598 284.238342,57.906651 286.357971,58.941643 
	C287.479340,51.240524 287.476990,51.251156 280.687622,49.747936 
	C279.885437,49.570332 279.126251,49.198643 277.978363,48.151569 
M82.724159,49.478088 
	C78.082169,49.401516 73.434326,49.175758 68.802475,49.357555 
	C67.700722,49.400795 65.735786,50.788204 65.718819,51.590149 
	C65.506409,61.632111 65.579620,71.680115 65.579620,81.740067 
	C68.037537,81.740067 70.431564,81.740067 73.105309,81.740067 
	C72.672882,77.621338 72.286545,73.941544 71.942772,70.667175 
	C76.824974,69.434860 81.119064,68.775948 85.072784,67.240570 
	C89.554184,65.500282 92.485962,62.029362 91.952484,56.837929 
	C91.451607,51.963726 87.586342,50.622780 82.724159,49.478088 
M360.607758,65.280708 
	C358.496613,57.725204 354.265900,55.315247 345.362366,56.596447 
	C339.208557,57.481964 338.622894,58.309418 339.691772,64.983887 
	C344.059540,63.175686 348.364716,59.976795 354.302429,64.054161 
	C352.250519,65.004013 351.078796,65.725624 349.804993,66.098267 
	C347.259827,66.842842 344.556091,67.132523 342.103760,68.087479 
	C337.976532,69.694633 336.252686,72.985115 337.274902,77.292931 
	C338.340881,81.785126 341.997467,82.749016 345.840515,82.132660 
	C348.314484,81.735870 350.602692,80.180763 353.074066,79.101189 
	C353.628052,82.911743 356.803497,82.666267 359.406464,81.812935 
	C360.421783,81.480095 361.084106,78.753059 361.142853,77.089539 
	C361.271515,73.445572 360.911743,69.784363 360.607758,65.280708 
M230.992172,60.717804 
	C227.505295,55.998798 222.561340,55.941097 217.468842,56.598385 
	C211.214127,57.405685 210.738022,58.123722 211.588989,64.982262 
	C216.029404,63.297470 220.438919,59.794849 226.309418,64.287048 
	C224.179581,65.171539 223.072693,65.766510 221.891632,66.093880 
	C219.333344,66.803017 216.641388,67.123428 214.177795,68.059792 
	C210.033203,69.635063 208.274979,72.900986 209.255722,77.223412 
	C210.278656,81.731697 213.921524,82.743195 217.775757,82.140007 
	C220.263290,81.750702 222.567139,80.187569 224.953323,79.150497 
	C224.771988,79.507530 224.590668,79.864555 224.409348,80.221588 
	C227.089157,81.004791 229.768951,81.787994 234.076523,83.046928 
	C233.041199,74.739632 232.210159,68.071609 230.992172,60.717804 
M102.059074,58.901852 
	C100.418571,58.110332 98.829994,56.960793 97.110855,56.711449 
	C96.463936,56.617619 94.964752,58.533527 94.805389,59.666985 
	C94.320938,63.112537 94.126472,66.624176 94.142685,70.108582 
	C94.164307,74.756966 94.992508,79.357468 99.818626,81.431793 
	C104.500023,83.443901 108.929611,82.558517 112.616959,78.138336 
	C113.361397,83.763863 116.616951,82.258331 119.753235,81.567169 
	C119.753235,74.782356 119.908882,68.308624 119.706993,61.846050 
	C119.525627,56.040607 117.938622,55.255604 112.251633,57.558689 
	C112.251633,62.057037 112.481491,66.532310 112.172226,70.970009 
	C111.959923,74.016380 110.370163,76.363503 106.747719,76.232521 
	C103.189873,76.103874 101.656754,73.704666 101.509743,70.678123 
	C101.333801,67.056183 101.807213,63.402691 102.059074,58.901852 
M131.542511,75.494095 
	C133.297241,83.557701 139.530609,84.636169 148.001801,78.079361 
	C147.293259,82.538162 150.227448,82.149193 152.954391,82.138557 
	C156.291824,82.125534 156.015610,79.824730 155.885147,77.617912 
	C155.708755,74.634003 155.284592,71.648514 155.337021,68.670212 
	C155.529160,57.757938 148.192139,55.364338 139.782578,56.599476 
	C133.660995,57.498577 133.161667,58.239525 134.340805,64.724174 
	C143.467896,60.957977 144.988770,60.914906 148.386841,65.068703 
	C145.161377,65.806145 142.322922,66.414314 139.505783,67.108856 
	C135.400726,68.120911 131.961929,69.870377 131.542511,75.494095 
M236.664948,75.600105 
	C240.610321,81.718269 245.858597,83.632080 253.952362,81.904083 
	C259.212555,80.781044 259.922516,79.371452 257.929291,74.008194 
	C248.872574,77.883606 246.401382,77.597580 242.266739,71.931664 
	C244.953079,72.249626 247.397781,72.765602 249.845398,72.779861 
	C254.438110,72.806618 258.281006,69.542557 258.682648,65.598457 
	C259.087860,61.619305 256.454468,58.187859 252.001862,56.938480 
	C247.203568,55.592113 242.594971,56.079582 238.992325,59.631874 
	C234.613693,63.949295 234.472519,69.339096 236.664948,75.600105 
M299.456024,50.801182 
	C297.884583,52.467037 296.313141,54.132889 293.982666,56.603378 
	C293.591736,56.898182 292.224579,57.929115 290.857422,58.960056 
	C292.400269,60.233177 293.943146,61.506298 295.874298,63.099823 
	C295.874298,65.510506 295.880829,68.649918 295.873047,71.789299 
	C295.852203,80.225441 299.172211,83.170090 307.572449,82.157326 
	C312.924805,81.512024 313.601654,80.389717 311.798248,75.150322 
	C302.973938,77.152946 302.572235,76.819588 302.773529,67.658096 
	C302.780792,67.326080 302.841797,66.988777 302.802063,66.663177 
	C302.333832,62.825321 303.815735,61.010048 307.839600,61.673130 
	C311.489197,62.274529 312.826294,60.831047 311.525391,56.923611 
	C310.312256,56.856293 309.020325,56.787991 307.728882,56.712025 
	C306.313843,56.628788 304.899200,56.538471 303.484406,56.451241 
	C303.766113,55.978443 304.047821,55.505650 304.329498,55.032852 
	C302.977356,53.620304 301.625183,52.207756 299.456024,50.801182 
M441.409149,63.098942 
	C440.056061,62.475872 438.639679,61.960510 437.361633,61.209698 
	C433.398529,58.881504 430.571747,61.764561 427.952881,63.678402 
	C426.282501,64.899101 429.298187,71.189583 431.944214,72.432678 
	C436.737823,74.684731 441.524078,76.962189 446.404236,79.012932 
	C447.551239,79.494919 449.557220,79.695328 450.322113,79.039200 
	C455.443634,74.645699 454.534241,69.151588 448.416687,66.316162 
	C446.314148,65.341667 444.201263,64.389572 441.409149,63.098942 
M129.938034,70.519745 
	C129.840958,67.032906 129.653122,63.545509 129.674698,60.059402 
	C129.692947,57.111656 128.058334,56.440811 125.534180,56.473423 
	C122.592270,56.511436 122.095657,57.998447 122.258263,60.660427 
	C122.662933,67.284836 122.859291,73.928665 122.880219,80.565514 
	C122.886070,82.423782 122.528107,84.861786 121.342461,85.963486 
	C120.381439,86.856445 117.929337,86.144699 116.070801,86.144699 
	C114.950996,91.733604 116.536758,93.572098 122.263176,92.993217 
	C126.653801,92.549370 129.503571,89.336288 129.822144,83.965340 
	C130.067673,79.825920 129.915710,75.662918 129.938034,70.519745 
M335.430084,63.016483 
	C334.808990,61.000835 334.761963,57.821548 333.462708,57.180630 
	C328.982300,54.970413 325.242889,57.234650 322.228790,61.157898 
	C321.642975,55.983288 320.890320,55.633842 314.246002,57.833496 
	C314.246002,63.787209 314.249481,70.083801 314.244995,76.380402 
	C314.240540,82.662979 315.186310,83.285576 321.684174,81.252365 
	C321.684174,77.950447 321.628571,74.647392 321.695801,71.346832 
	C321.834625,64.531288 325.867981,61.855240 332.279633,64.121056 
	C333.143829,64.426460 334.293884,63.922852 335.430084,63.016483 
M390.885925,99.025627 
	C403.338318,99.027008 415.791199,99.076912 428.242340,98.953201 
	C429.460388,98.941101 430.667847,97.860558 431.880219,97.275932 
	C430.874969,96.467766 429.878021,94.968597 428.863159,94.956337 
	C416.080841,94.802025 403.295746,94.838890 390.512024,94.923210 
	C389.704346,94.928535 388.901886,95.731087 388.096985,96.162758 
	C388.722229,97.104675 389.347473,98.046585 390.885925,99.025627 
M417.262878,85.834854 
	C411.770416,85.837662 406.261871,85.597839 400.793213,85.960045 
	C398.535004,86.109612 396.362335,87.551102 394.150757,88.405006 
	C394.321533,88.858879 394.492340,89.312744 394.663116,89.766617 
	C404.757233,89.766617 414.851379,89.766617 424.945496,89.766617 
	C425.092407,89.188576 425.239319,88.610535 425.386230,88.032501 
	C422.990631,87.300186 420.595001,86.567879 417.262878,85.834854 
M125.387711,54.174458 
	C126.754005,53.083893 128.120300,51.993328 129.486588,50.902760 
	C128.422424,49.861023 127.463577,48.149147 126.265274,47.960796 
	C124.996605,47.761387 123.500168,49.011169 122.103210,49.627983 
	C122.929527,51.113281 123.755836,52.598579 125.387711,54.174458 
z"/>
<path fill="#FDF3F6" opacity="1.000000" stroke="none" 
	d="
M425.040161,58.885223 
	C424.047211,62.536842 420.349243,65.055931 423.578369,69.508209 
	C424.570587,70.876190 421.656464,75.452492 419.902222,78.150833 
	C419.506073,78.760193 416.333679,78.010490 414.699768,77.293129 
	C407.106659,73.959396 399.591705,70.445923 392.079407,66.931236 
	C389.943939,65.932121 386.514648,65.210991 388.316589,61.879433 
	C390.003906,58.759781 389.554291,52.959255 395.976868,54.411533 
	C397.145874,51.960762 398.405579,49.616825 399.362122,47.155079 
	C399.701965,46.280434 399.329865,45.117126 399.238037,44.089584 
	C399.095184,42.490372 398.344177,40.684189 398.843323,39.332035 
	C401.711578,31.561794 401.811920,31.595980 409.382324,35.098106 
	C416.307220,38.301636 423.293976,41.382908 430.104614,44.813622 
	C431.691772,45.613125 434.028107,48.353844 433.710846,48.930027 
	C432.072174,51.906029 432.863770,56.967201 427.477509,57.171921 
	C426.694000,57.201694 425.941437,58.046158 425.040161,58.885223 
z"/>
<path fill="#FAF5FA" opacity="1.000000" stroke="none" 
	d="
M186.910187,77.271301 
	C184.405563,72.351807 182.193512,67.672905 179.981461,62.994007 
	C179.514084,63.016010 179.046692,63.038010 178.579315,63.060009 
	C178.579315,67.250099 178.493683,71.442337 178.598511,75.629807 
	C178.775452,82.697632 178.826172,82.696365 171.171890,81.724739 
	C171.171890,76.841705 171.000366,71.916321 171.222427,67.008743 
	C171.425171,62.528030 171.785233,58.014523 172.635559,53.623840 
	C172.949600,52.002178 174.666977,49.725792 176.083862,49.441711 
	C178.829971,48.891140 182.188354,48.530415 183.364685,52.625645 
	C184.509918,56.612530 185.890762,60.533699 187.250000,64.455345 
	C187.496719,65.167122 188.138046,65.742111 189.454315,67.571373 
	C191.176758,62.482491 192.975449,58.461876 193.846100,54.249454 
	C194.807419,49.598312 197.787888,48.763702 201.513184,49.348988 
	C202.832092,49.556206 204.818542,51.203552 204.951874,52.370350 
	C206.044006,61.928589 206.770325,71.528633 207.591629,80.931473 
	C200.112061,83.484833 199.071762,82.733101 199.193161,75.817642 
	C199.267273,71.597115 199.206863,67.374222 199.206863,63.152393 
	C198.692444,63.083576 198.178009,63.014759 197.663589,62.945938 
	C196.158386,66.643509 194.691666,70.357361 193.134888,74.033089 
	C192.039185,76.620216 190.716110,78.975853 186.910187,77.271301 
z"/>
<path fill="#F8F3FA" opacity="1.000000" stroke="none" 
	d="
M278.162750,48.534245 
	C279.126251,49.198643 279.885437,49.570332 280.687622,49.747936 
	C287.476990,51.251156 287.479340,51.240524 286.357971,58.941643 
	C284.238342,57.906651 282.285309,56.863598 280.256287,55.998947 
	C279.200348,55.548962 277.889099,54.960384 276.904144,55.223671 
	C274.235748,55.936951 271.680176,57.072212 269.079865,58.040123 
	C271.010468,59.605404 272.759033,61.516808 274.916199,62.651337 
	C277.836090,64.187035 281.478546,64.577202 284.045135,66.487694 
	C286.289429,68.158302 288.395813,71.075874 288.906830,73.758110 
	C289.626740,77.536919 286.336670,79.571609 283.098053,80.871193 
	C281.571411,81.483803 279.921661,81.789581 278.011475,82.322617 
	C277.553253,85.163452 278.238403,89.682968 272.336395,87.139786 
	C272.175598,85.856483 271.977264,84.273438 271.782104,82.715919 
	C260.250183,79.300758 260.250183,79.300758 261.177795,71.992691 
	C265.071655,73.376968 268.895935,75.409607 272.915558,75.928055 
	C275.580048,76.271721 280.487183,75.042740 280.962799,73.476784 
	C282.220062,69.337120 277.587891,69.170174 274.895264,67.969742 
	C272.018555,66.687225 268.641235,66.135315 266.248535,64.277725 
	C264.162109,62.657936 261.852081,59.574295 262.011963,57.304497 
	C262.172699,55.023174 264.852051,52.093208 267.164307,50.986244 
	C270.500580,49.389053 274.063477,48.832470 271.765015,43.460407 
	C274.081421,43.288918 275.648865,43.172878 277.670654,43.023201 
	C277.786926,44.961308 277.882660,46.556438 278.162750,48.534245 
z"/>
<path fill="#F9F4FA" opacity="1.000000" stroke="none" 
	d="
M83.135429,49.581264 
	C87.586342,50.622780 91.451607,51.963726 91.952484,56.837929 
	C92.485962,62.029362 89.554184,65.500282 85.072784,67.240570 
	C81.119064,68.775948 76.824974,69.434860 71.942772,70.667175 
	C72.286545,73.941544 72.672882,77.621338 73.105309,81.740067 
	C70.431564,81.740067 68.037537,81.740067 65.579620,81.740067 
	C65.579620,71.680115 65.506409,61.632111 65.718819,51.590149 
	C65.735786,50.788204 67.700722,49.400795 68.802475,49.357555 
	C73.434326,49.175758 78.082169,49.401516 83.135429,49.581264 
M80.875420,63.712116 
	C82.241196,61.709015 83.606972,59.705914 84.972740,57.702816 
	C82.884880,56.716553 80.828941,55.651180 78.691216,54.788494 
	C77.978210,54.500763 77.054115,54.764095 76.229424,54.720612 
	C70.573730,54.422386 72.144653,58.590271 72.040047,61.609062 
	C71.899658,65.660271 74.730042,64.952835 77.210304,64.621254 
	C78.189003,64.490410 79.144447,64.185623 80.875420,63.712116 
z"/>
<path fill="#F9F4FA" opacity="1.000000" stroke="none" 
	d="
M360.679596,65.705452 
	C360.911743,69.784363 361.271515,73.445572 361.142853,77.089539 
	C361.084106,78.753059 360.421783,81.480095 359.406464,81.812935 
	C356.803497,82.666267 353.628052,82.911743 353.074066,79.101189 
	C350.602692,80.180763 348.314484,81.735870 345.840515,82.132660 
	C341.997467,82.749016 338.340881,81.785126 337.274902,77.292931 
	C336.252686,72.985115 337.976532,69.694633 342.103760,68.087479 
	C344.556091,67.132523 347.259827,66.842842 349.804993,66.098267 
	C351.078796,65.725624 352.250519,65.004013 354.302429,64.054161 
	C348.364716,59.976795 344.059540,63.175686 339.691772,64.983887 
	C338.622894,58.309418 339.208557,57.481964 345.362366,56.596447 
	C354.265900,55.315247 358.496613,57.725204 360.679596,65.705452 
M350.552521,75.873032 
	C351.315613,73.937798 352.078674,72.002563 352.841766,70.067329 
	C351.002838,69.982437 348.846405,69.268417 347.414886,69.990829 
	C346.003479,70.703072 345.326080,72.869705 344.326630,74.398247 
	C346.163086,74.971504 347.999542,75.544769 350.552521,75.873032 
M353.451050,77.902138 
	C353.527771,77.817070 353.662354,77.733696 353.664886,77.646461 
	C353.667450,77.559334 353.537811,77.468338 353.466156,77.379051 
	C353.389374,77.464081 353.312592,77.549103 353.451050,77.902138 
z"/>
<path fill="#F9F4FA" opacity="1.000000" stroke="none" 
	d="
M231.185638,61.060696 
	C232.210159,68.071609 233.041199,74.739632 234.076523,83.046928 
	C229.768951,81.787994 227.089157,81.004791 224.409348,80.221588 
	C224.590668,79.864555 224.771988,79.507530 224.953323,79.150497 
	C222.567139,80.187569 220.263290,81.750702 217.775757,82.140007 
	C213.921524,82.743195 210.278656,81.731697 209.255722,77.223412 
	C208.274979,72.900986 210.033203,69.635063 214.177795,68.059792 
	C216.641388,67.123428 219.333344,66.803017 221.891632,66.093880 
	C223.072693,65.766510 224.179581,65.171539 226.309418,64.287048 
	C220.438919,59.794849 216.029404,63.297470 211.588989,64.982262 
	C210.738022,58.123722 211.214127,57.405685 217.468842,56.598385 
	C222.561340,55.941097 227.505295,55.998798 231.185638,61.060696 
M217.067047,71.467453 
	C217.307388,73.011200 217.547745,74.554947 217.788086,76.098701 
	C219.909119,75.586708 222.270981,75.470024 224.045303,74.388977 
	C224.880142,73.880348 224.585342,71.517624 224.802414,69.995079 
	C223.104385,69.878944 221.399170,69.624184 219.711700,69.711746 
	C218.989685,69.749207 218.304688,70.499733 217.067047,71.467453 
M225.450989,77.902145 
	C225.527725,77.817093 225.662369,77.733727 225.664917,77.646492 
	C225.667465,77.559341 225.537827,77.468330 225.466141,77.379005 
	C225.389343,77.464027 225.312546,77.549042 225.450989,77.902145 
z"/>
<path fill="#F9F4FA" opacity="1.000000" stroke="none" 
	d="
M102.029228,59.332359 
	C101.807213,63.402691 101.333801,67.056183 101.509743,70.678123 
	C101.656754,73.704666 103.189873,76.103874 106.747719,76.232521 
	C110.370163,76.363503 111.959923,74.016380 112.172226,70.970009 
	C112.481491,66.532310 112.251633,62.057037 112.251633,57.558689 
	C117.938622,55.255604 119.525627,56.040607 119.706993,61.846050 
	C119.908882,68.308624 119.753235,74.782356 119.753235,81.567169 
	C116.616951,82.258331 113.361397,83.763863 112.616959,78.138336 
	C108.929611,82.558517 104.500023,83.443901 99.818626,81.431793 
	C94.992508,79.357468 94.164307,74.756966 94.142685,70.108582 
	C94.126472,66.624176 94.320938,63.112537 94.805389,59.666985 
	C94.964752,58.533527 96.463936,56.617619 97.110855,56.711449 
	C98.829994,56.960793 100.418571,58.110332 102.029228,59.332359 
z"/>
<path fill="#FAF5FB" opacity="1.000000" stroke="none" 
	d="
M131.552856,75.123978 
	C131.961929,69.870377 135.400726,68.120911 139.505783,67.108856 
	C142.322922,66.414314 145.161377,65.806145 148.386841,65.068703 
	C144.988770,60.914906 143.467896,60.957977 134.340805,64.724174 
	C133.161667,58.239525 133.660995,57.498577 139.782578,56.599476 
	C148.192139,55.364338 155.529160,57.757938 155.337021,68.670212 
	C155.284592,71.648514 155.708755,74.634003 155.885147,77.617912 
	C156.015610,79.824730 156.291824,82.125534 152.954391,82.138557 
	C150.227448,82.149193 147.293259,82.538162 148.001801,78.079361 
	C139.530609,84.636169 133.297241,83.557701 131.552856,75.123978 
M144.548447,76.085480 
	C147.016449,74.523079 149.765045,72.666275 146.743439,69.744698 
	C145.812286,68.844376 142.657471,69.579338 140.929245,70.412605 
	C139.861786,70.927284 139.565323,73.041031 138.922745,74.436897 
	C140.555923,75.046692 142.189087,75.656487 144.548447,76.085480 
z"/>
<path fill="#F9F3FA" opacity="1.000000" stroke="none" 
	d="
M236.475250,75.259903 
	C234.472519,69.339096 234.613693,63.949295 238.992325,59.631874 
	C242.594971,56.079582 247.203568,55.592113 252.001862,56.938480 
	C256.454468,58.187859 259.087860,61.619305 258.682648,65.598457 
	C258.281006,69.542557 254.438110,72.806618 249.845398,72.779861 
	C247.397781,72.765602 244.953079,72.249626 242.266739,71.931664 
	C246.401382,77.597580 248.872574,77.883606 257.929291,74.008194 
	C259.922516,79.371452 259.212555,80.781044 253.952362,81.904083 
	C245.858597,83.632080 240.610321,81.718269 236.475250,75.259903 
M242.352234,67.131310 
	C243.193207,67.644379 244.119690,68.690811 244.859375,68.572235 
	C247.239090,68.190720 249.549881,67.379318 251.887238,66.733688 
	C251.425888,65.273987 250.963913,62.563248 250.503296,62.563480 
	C248.045731,62.564709 245.544418,63.094376 243.163269,63.797146 
	C242.592880,63.965496 242.422791,65.490128 242.352234,67.131310 
z"/>
<path fill="#F8F3FA" opacity="1.000000" stroke="none" 
	d="
M299.864502,50.798195 
	C301.625183,52.207756 302.977356,53.620304 304.329498,55.032852 
	C304.047821,55.505650 303.766113,55.978443 303.484406,56.451241 
	C304.899200,56.538471 306.313843,56.628788 307.728882,56.712025 
	C309.020325,56.787991 310.312256,56.856293 311.525391,56.923611 
	C312.826294,60.831047 311.489197,62.274529 307.839600,61.673130 
	C303.815735,61.010048 302.333832,62.825321 302.802063,66.663177 
	C302.841797,66.988777 302.780792,67.326080 302.773529,67.658096 
	C302.572235,76.819588 302.973938,77.152946 311.798248,75.150322 
	C313.601654,80.389717 312.924805,81.512024 307.572449,82.157326 
	C299.172211,83.170090 295.852203,80.225441 295.873047,71.789299 
	C295.880829,68.649918 295.874298,65.510506 295.874298,63.099823 
	C293.943146,61.506298 292.400269,60.233177 290.857422,58.960052 
	C292.224579,57.929115 293.591736,56.898182 293.982666,56.603378 
	C296.313141,54.132889 297.884583,52.467037 299.864502,50.798195 
z"/>
<path fill="#FBF0F4" opacity="1.000000" stroke="none" 
	d="
M441.751129,63.263092 
	C444.201263,64.389572 446.314148,65.341667 448.416687,66.316162 
	C454.534241,69.151588 455.443634,74.645699 450.322113,79.039200 
	C449.557220,79.695328 447.551239,79.494919 446.404236,79.012932 
	C441.524078,76.962189 436.737823,74.684731 431.944214,72.432678 
	C429.298187,71.189583 426.282501,64.899101 427.952881,63.678402 
	C430.571747,61.764561 433.398529,58.881504 437.361633,61.209698 
	C438.639679,61.960510 440.056061,62.475872 441.751129,63.263092 
z"/>
<path fill="#FAF5FB" opacity="1.000000" stroke="none" 
	d="
M129.939270,71.015076 
	C129.915710,75.662918 130.067673,79.825920 129.822144,83.965340 
	C129.503571,89.336288 126.653801,92.549370 122.263176,92.993217 
	C116.536758,93.572098 114.950996,91.733604 116.070801,86.144699 
	C117.929337,86.144699 120.381439,86.856445 121.342461,85.963486 
	C122.528107,84.861786 122.886070,82.423782 122.880219,80.565514 
	C122.859291,73.928665 122.662933,67.284836 122.258263,60.660427 
	C122.095657,57.998447 122.592270,56.511436 125.534180,56.473423 
	C128.058334,56.440811 129.692947,57.111656 129.674698,60.059402 
	C129.653122,63.545509 129.840958,67.032906 129.939270,71.015076 
z"/>
<path fill="#F8F2F9" opacity="1.000000" stroke="none" 
	d="
M335.370850,63.405170 
	C334.293884,63.922852 333.143829,64.426460 332.279633,64.121056 
	C325.867981,61.855240 321.834625,64.531288 321.695801,71.346832 
	C321.628571,74.647392 321.684174,77.950447 321.678986,81.252312 
	C315.186310,83.285576 314.240540,82.662979 314.244995,76.380402 
	C314.249481,70.083801 314.246002,63.787209 314.246002,57.833496 
	C320.890320,55.633842 321.642975,55.983288 322.228790,61.157898 
	C325.242889,57.234650 328.982300,54.970413 333.462708,57.180630 
	C334.761963,57.821548 334.808990,61.000835 335.370850,63.405170 
z"/>
<path fill="#FEF6F7" opacity="1.000000" stroke="none" 
	d="
M390.429321,99.007065 
	C389.347473,98.046585 388.722229,97.104675 388.096985,96.162758 
	C388.901886,95.731087 389.704346,94.928535 390.512024,94.923210 
	C403.295746,94.838890 416.080841,94.802025 428.863159,94.956337 
	C429.878021,94.968597 430.874969,96.467766 431.880219,97.275940 
	C430.667847,97.860558 429.460388,98.941101 428.242340,98.953201 
	C415.791199,99.076912 403.338318,99.027008 390.429321,99.007065 
z"/>
<path fill="#FDF4F6" opacity="1.000000" stroke="none" 
	d="
M417.731140,85.835213 
	C420.595001,86.567879 422.990631,87.300186 425.386230,88.032501 
	C425.239319,88.610535 425.092407,89.188576 424.945496,89.766617 
	C414.851379,89.766617 404.757233,89.766617 394.663116,89.766617 
	C394.492340,89.312744 394.321533,88.858879 394.150757,88.405006 
	C396.362335,87.551102 398.535004,86.109612 400.793213,85.960045 
	C406.261871,85.597839 411.770416,85.837662 417.731140,85.835213 
z"/>
<path fill="#F8F3FA" opacity="1.000000" stroke="none" 
	d="
M124.984924,54.129169 
	C123.755836,52.598579 122.929527,51.113281 122.103210,49.627983 
	C123.500168,49.011169 124.996605,47.761387 126.265274,47.960796 
	C127.463577,48.149147 128.422424,49.861023 129.486588,50.902763 
	C128.120300,51.993328 126.754005,53.083893 124.984924,54.129169 
z"/>
<path fill="#7E0F94" opacity="1.000000" stroke="none" 
	d="
M80.492950,63.836082 
	C79.144447,64.185623 78.189003,64.490410 77.210304,64.621254 
	C74.730042,64.952835 71.899658,65.660271 72.040047,61.609062 
	C72.144653,58.590271 70.573730,54.422386 76.229424,54.720612 
	C77.054115,54.764095 77.978210,54.500763 78.691216,54.788494 
	C80.828941,55.651180 82.884880,56.716553 84.972740,57.702812 
	C83.606972,59.705914 82.241196,61.709015 80.492950,63.836082 
z"/>
<path fill="#831898" opacity="1.000000" stroke="none" 
	d="
M350.194275,75.995529 
	C347.999542,75.544769 346.163086,74.971504 344.326630,74.398239 
	C345.326080,72.869705 346.003479,70.703072 347.414886,69.990829 
	C348.846405,69.268417 351.002838,69.982437 352.841766,70.067329 
	C352.078674,72.002563 351.315613,73.937798 350.194275,75.995529 
z"/>
<path fill="#7C0B93" opacity="1.000000" stroke="none" 
	d="
M353.343445,77.768135 
	C353.312592,77.549103 353.389374,77.464081 353.466125,77.379044 
	C353.537811,77.468338 353.667450,77.559334 353.664886,77.646461 
	C353.662354,77.733696 353.527771,77.817070 353.343445,77.768135 
z"/>
<path fill="#831898" opacity="1.000000" stroke="none" 
	d="
M217.334961,71.196854 
	C218.304688,70.499733 218.989685,69.749207 219.711700,69.711746 
	C221.399170,69.624184 223.104385,69.878944 224.802414,69.995071 
	C224.585342,71.517624 224.880142,73.880348 224.045303,74.388977 
	C222.270981,75.470024 219.909119,75.586708 217.788086,76.098694 
	C217.547745,74.554947 217.307388,73.011200 217.334961,71.196854 
z"/>
<path fill="#7C0B93" opacity="1.000000" stroke="none" 
	d="
M225.343369,77.768105 
	C225.312546,77.549042 225.389343,77.464027 225.466141,77.379013 
	C225.537827,77.468330 225.667465,77.559341 225.664917,77.646492 
	C225.662369,77.733727 225.527725,77.817093 225.343369,77.768105 
z"/>
<path fill="#851C9B" opacity="1.000000" stroke="none" 
	d="
M144.185364,76.175880 
	C142.189087,75.656487 140.555923,75.046692 138.922729,74.436890 
	C139.565323,73.041031 139.861786,70.927284 140.929245,70.412605 
	C142.657471,69.579338 145.812286,68.844376 146.743439,69.744698 
	C149.765045,72.666275 147.016449,74.523079 144.185364,76.175880 
z"/>
<path fill="#811497" opacity="1.000000" stroke="none" 
	d="
M242.210419,66.761154 
	C242.422791,65.490128 242.592880,63.965496 243.163269,63.797146 
	C245.544418,63.094376 248.045731,62.564709 250.503296,62.563480 
	C250.963913,62.563248 251.425888,65.273987 251.887238,66.733696 
	C249.549881,67.379318 247.239090,68.190720 244.859375,68.572235 
	C244.119690,68.690811 243.193207,67.644379 242.210419,66.761154 
z"/>
</svg>